<mxfile host="app.diagrams.net" modified="2023-05-25T07:56:30.706Z" agent="Mozilla/5.0 (Windows NT 10.0; Win64; x64) AppleWebKit/537.36 (KHTML, like Gecko) Chrome/113.0.0.0 Safari/537.36" etag="iS6Nmw0r3Z1QG9KD3tzy" version="21.3.2" type="github">
  <diagram name="第 1 页" id="Jqcyr3Mh_9-g8RaHAsbG">
    <mxGraphModel dx="1027" dy="479" grid="0" gridSize="10" guides="1" tooltips="1" connect="1" arrows="1" fold="1" page="1" pageScale="1" pageWidth="827" pageHeight="1169" math="0" shadow="0">
      <root>
        <mxCell id="0" />
        <mxCell id="1" parent="0" />
        <mxCell id="4-gMspldlcqu50_yDS6m-1" value="用户" style="rounded=0;whiteSpace=wrap;html=1;" vertex="1" parent="1">
          <mxGeometry x="42" y="199" width="120" height="60" as="geometry" />
        </mxCell>
        <mxCell id="4-gMspldlcqu50_yDS6m-2" value="订单" style="rounded=0;whiteSpace=wrap;html=1;" vertex="1" parent="1">
          <mxGeometry x="312" y="330" width="120" height="60" as="geometry" />
        </mxCell>
        <mxCell id="4-gMspldlcqu50_yDS6m-3" value="菜品" style="rounded=0;whiteSpace=wrap;html=1;" vertex="1" parent="1">
          <mxGeometry x="312" y="72" width="120" height="60" as="geometry" />
        </mxCell>
        <mxCell id="4-gMspldlcqu50_yDS6m-4" value="管理员" style="rounded=0;whiteSpace=wrap;html=1;" vertex="1" parent="1">
          <mxGeometry x="582" y="199" width="120" height="60" as="geometry" />
        </mxCell>
        <mxCell id="4-gMspldlcqu50_yDS6m-5" value="选购" style="rhombus;whiteSpace=wrap;html=1;" vertex="1" parent="1">
          <mxGeometry x="38" y="62" width="128" height="80" as="geometry" />
        </mxCell>
        <mxCell id="4-gMspldlcqu50_yDS6m-6" value="处理" style="rhombus;whiteSpace=wrap;html=1;" vertex="1" parent="1">
          <mxGeometry x="578" y="320" width="128" height="80" as="geometry" />
        </mxCell>
        <mxCell id="4-gMspldlcqu50_yDS6m-7" value="维护" style="rhombus;whiteSpace=wrap;html=1;" vertex="1" parent="1">
          <mxGeometry x="578" y="62" width="128" height="80" as="geometry" />
        </mxCell>
        <mxCell id="4-gMspldlcqu50_yDS6m-8" value="下单" style="rhombus;whiteSpace=wrap;html=1;" vertex="1" parent="1">
          <mxGeometry x="38" y="320" width="128" height="80" as="geometry" />
        </mxCell>
        <mxCell id="4-gMspldlcqu50_yDS6m-9" value="管理" style="rhombus;whiteSpace=wrap;html=1;" vertex="1" parent="1">
          <mxGeometry x="308" y="189" width="128" height="80" as="geometry" />
        </mxCell>
        <mxCell id="4-gMspldlcqu50_yDS6m-10" value="N" style="endArrow=none;html=1;rounded=0;exitX=1;exitY=0.5;exitDx=0;exitDy=0;entryX=0;entryY=0.5;entryDx=0;entryDy=0;" edge="1" parent="1" source="4-gMspldlcqu50_yDS6m-8" target="4-gMspldlcqu50_yDS6m-2">
          <mxGeometry width="50" height="50" relative="1" as="geometry">
            <mxPoint x="210" y="284" as="sourcePoint" />
            <mxPoint x="260" y="234" as="targetPoint" />
          </mxGeometry>
        </mxCell>
        <mxCell id="4-gMspldlcqu50_yDS6m-11" value="1" style="endArrow=none;html=1;rounded=0;exitX=0.5;exitY=0;exitDx=0;exitDy=0;entryX=0.5;entryY=1;entryDx=0;entryDy=0;" edge="1" parent="1" source="4-gMspldlcqu50_yDS6m-8" target="4-gMspldlcqu50_yDS6m-1">
          <mxGeometry width="50" height="50" relative="1" as="geometry">
            <mxPoint x="176" y="370" as="sourcePoint" />
            <mxPoint x="322" y="370" as="targetPoint" />
          </mxGeometry>
        </mxCell>
        <mxCell id="4-gMspldlcqu50_yDS6m-12" value="M" style="endArrow=none;html=1;rounded=0;exitX=0.5;exitY=0;exitDx=0;exitDy=0;" edge="1" parent="1" source="4-gMspldlcqu50_yDS6m-1" target="4-gMspldlcqu50_yDS6m-5">
          <mxGeometry width="50" height="50" relative="1" as="geometry">
            <mxPoint x="186" y="380" as="sourcePoint" />
            <mxPoint x="332" y="380" as="targetPoint" />
          </mxGeometry>
        </mxCell>
        <mxCell id="4-gMspldlcqu50_yDS6m-13" value="N" style="endArrow=none;html=1;rounded=0;exitX=1;exitY=0.5;exitDx=0;exitDy=0;entryX=0;entryY=0.5;entryDx=0;entryDy=0;" edge="1" parent="1" source="4-gMspldlcqu50_yDS6m-5" target="4-gMspldlcqu50_yDS6m-3">
          <mxGeometry width="50" height="50" relative="1" as="geometry">
            <mxPoint x="196" y="390" as="sourcePoint" />
            <mxPoint x="342" y="390" as="targetPoint" />
          </mxGeometry>
        </mxCell>
        <mxCell id="4-gMspldlcqu50_yDS6m-14" value="N" style="endArrow=none;html=1;rounded=0;exitX=0;exitY=0.5;exitDx=0;exitDy=0;entryX=1;entryY=0.5;entryDx=0;entryDy=0;" edge="1" parent="1" source="4-gMspldlcqu50_yDS6m-7" target="4-gMspldlcqu50_yDS6m-3">
          <mxGeometry width="50" height="50" relative="1" as="geometry">
            <mxPoint x="206" y="400" as="sourcePoint" />
            <mxPoint x="352" y="400" as="targetPoint" />
          </mxGeometry>
        </mxCell>
        <mxCell id="4-gMspldlcqu50_yDS6m-15" value="N" style="endArrow=none;html=1;rounded=0;entryX=1;entryY=0.5;entryDx=0;entryDy=0;exitX=0;exitY=0.5;exitDx=0;exitDy=0;" edge="1" parent="1" source="4-gMspldlcqu50_yDS6m-6" target="4-gMspldlcqu50_yDS6m-2">
          <mxGeometry width="50" height="50" relative="1" as="geometry">
            <mxPoint x="216" y="410" as="sourcePoint" />
            <mxPoint x="362" y="410" as="targetPoint" />
          </mxGeometry>
        </mxCell>
        <mxCell id="4-gMspldlcqu50_yDS6m-16" value="M" style="endArrow=none;html=1;rounded=0;entryX=0.5;entryY=0;entryDx=0;entryDy=0;exitX=0.5;exitY=1;exitDx=0;exitDy=0;" edge="1" parent="1" source="4-gMspldlcqu50_yDS6m-4" target="4-gMspldlcqu50_yDS6m-6">
          <mxGeometry width="50" height="50" relative="1" as="geometry">
            <mxPoint x="650" y="261" as="sourcePoint" />
            <mxPoint x="372" y="420" as="targetPoint" />
          </mxGeometry>
        </mxCell>
        <mxCell id="4-gMspldlcqu50_yDS6m-17" value="M" style="endArrow=none;html=1;rounded=0;exitX=0.5;exitY=0;exitDx=0;exitDy=0;entryX=0.5;entryY=1;entryDx=0;entryDy=0;" edge="1" parent="1" source="4-gMspldlcqu50_yDS6m-4" target="4-gMspldlcqu50_yDS6m-7">
          <mxGeometry width="50" height="50" relative="1" as="geometry">
            <mxPoint x="236" y="430" as="sourcePoint" />
            <mxPoint x="382" y="430" as="targetPoint" />
          </mxGeometry>
        </mxCell>
        <mxCell id="4-gMspldlcqu50_yDS6m-18" value="M" style="endArrow=none;html=1;rounded=0;exitX=1;exitY=0.5;exitDx=0;exitDy=0;entryX=0;entryY=0.5;entryDx=0;entryDy=0;" edge="1" parent="1" source="4-gMspldlcqu50_yDS6m-1" target="4-gMspldlcqu50_yDS6m-9">
          <mxGeometry width="50" height="50" relative="1" as="geometry">
            <mxPoint x="246" y="440" as="sourcePoint" />
            <mxPoint x="392" y="440" as="targetPoint" />
          </mxGeometry>
        </mxCell>
        <mxCell id="4-gMspldlcqu50_yDS6m-19" value="N" style="endArrow=none;html=1;rounded=0;exitX=1;exitY=0.5;exitDx=0;exitDy=0;entryX=0;entryY=0.5;entryDx=0;entryDy=0;" edge="1" parent="1" source="4-gMspldlcqu50_yDS6m-9" target="4-gMspldlcqu50_yDS6m-4">
          <mxGeometry width="50" height="50" relative="1" as="geometry">
            <mxPoint x="256" y="450" as="sourcePoint" />
            <mxPoint x="402" y="450" as="targetPoint" />
          </mxGeometry>
        </mxCell>
      </root>
    </mxGraphModel>
  </diagram>
</mxfile>
